<svg xmlns="http://www.w3.org/2000/svg" style="display: none;">
  <defs>
    <symbol id="send" viewBox="0 0 24 24">
      <path d="m2 21 21-9L2 3v7l15 2-15 2v7Z"/>
    </symbol>
    <symbol id="arrow-right" viewBox="0 0 24 24">
      <path d="m14.2 4.8 6.5 6.5.7.7-.7.7-6.5 6.5-1.4-1.4 4.8-4.8H3v-2h14.6l-4.8-4.8 1.4-1.4Z"/>
    </symbol>
    <symbol id="chevron-right" viewBox="0 0 24 24">
      <path d="M13.6 12 7.8 6.2l1.4-1.4 6.5 6.5.7.7-.7.7-6.5 6.5-1.4-1.4 5.8-5.8Z"/>
    </symbol>
    <symbol id="twitter" viewBox="0 0 24 24">
      <path d="M18.24 2.25h3.31l-7.23 8.26 8.5 11.24h-6.65l-5.21-6.82-5.97 6.82H1.68l7.73-8.84L1.25 2.25h6.83l4.71 6.23 5.45-6.23Zm-1.16 17.52h1.84L7.08 4.13H5.12l11.96 15.64Z"/>
    </symbol>
    <symbol id="github1" viewBox="0 0 24 24">
      <path d="M12 2a10 10 0 0 0-3.2 19.5c.5 0 .7-.2.7-.5v-1.7C6.7 20 6.1 18 6.1 18c-.4-1.2-1-1.5-1-1.5-1-.6 0-.6 0-.6 1 0 1.5 1 1.5 1 .9 1.6 2.4 1.1 3 .9 0-.7.3-1.1.6-1.4-2.2-.2-4.6-1-4.6-4.9 0-1.1.4-2 1-2.7 0-.3-.4-1.3.2-2.7 0 0 .8-.2 2.7 1a9.4 9.4 0 0 1 5 0c2-1.2 2.8-1 2.8-1 .5 1.4.1 2.4 0 2.7.7.7 1 1.6 1 2.7 0 3.8-2.3 4.7-4.5 5 .4.2.7.8.7 1.8V21c0 .3.2.6.7.5A10 10 0 0 0 12 2Z"/>
    </symbol>
    <symbol id="menu" viewBox="0 0 24 24">
      <path d="M22 6H2V4h20v2ZM2 13h16v-2H2v2Zm0 7h20v-2H2v2Z"/>
    </symbol>
    <symbol id="figma" viewBox="0 0 24 24">
      <path fill-rule="evenodd" d="M15 10a2 2 0 1 0 0 4 2 2 0 0 0 0-4Zm-2 5.5A4 4 0 0 0 17.6 9a4 4 0 0 0 .2-5.8A4 4 0 0 0 15 2H9a4 4 0 0 0-2.6 7 4 4 0 0 0 0 6A4 4 0 0 0 5 18a4 4 0 1 0 8 0v-2.5Zm-2 .5H9a2 2 0 1 0 2 2v-2ZM9 8h2V4H9a2 2 0 1 0 0 4Zm0 2a2 2 0 1 0 0 4h2v-4H9Zm4-2V4h2a2 2 0 0 1 0 4h-2Z"/>
    </symbol>
    <symbol id="copy" viewBox="0 0 24 24">
      <path d="M3 2h12v4H7v10H3V2Zm6 20V8h12v11l-3 3H9Z"/>
    </symbol>
    <symbol id="error" viewBox="0 0 24 24">
      <path d="M19.7 19H4.3L12 5l7.7 14ZM11.1 2.5l-9.4 17 1 1.5h18.7l.9-1.5-9.4-17H11ZM11 14v-4h2v4h-2Zm0 3v-2h2v2h-2Z"/>
    </symbol>
    <symbol id="arrow-left" viewBox="0 0 24 24">
      <path d="m9.8 19.2-6.5-6.5-.7-.7.7-.7 6.5-6.5 1.4 1.4L6.4 11H21v2H6.4l4.8 4.8-1.4 1.4Z"/>
    </symbol>
    <symbol id="check" viewBox="0 0 24 24">
      <path d="m20.2 7.2-10 10-.7.7-.7-.7-5-5 1.4-1.4L9.5 15l9.3-9.3 1.4 1.4Z"/>
    </symbol>
    <symbol id="link" viewBox="0 0 24 24">
      <path d="M9 4 8 5v2h2V6h10v7H10v-2H8v3l1 1h12l1-1V5l-1-1H9Zm2 4H3L2 9v9l1 1h12l1-1v-2h-2v1H4v-7h10v2h2V9l-1-1h-4Z"/>
    </symbol>
    <symbol id="close" viewBox="0 0 24 24">
      <path d="M19 6.4 17.6 5 12 10.6 6.4 5 5 6.4l5.6 5.6L5 17.6 6.4 19l5.6-5.6 5.6 5.6 1.4-1.4-5.6-5.6L19 6.4Z"/>
    </symbol>
    <symbol id="pause" viewBox="0 0 24 24">
      <path d="M6 19h4V5H6v14Zm8-14v14h4V5h-4Z"/>
    </symbol>
    <symbol id="play" viewBox="0 0 24 24">
      <path d="M8 5v14l11-7L8 5Z"/>
    </symbol>
    <symbol id="telegram" viewBox="0 0 333334 333334" shape-rendering="geometricPrecision" text-rendering="geometricPrecision" image-rendering="optimizeQuality" fill-rule="evenodd" clip-rule="evenodd">
      <path d="M166667 0c92048 0 166667 74619 166667 166667s-74619 166667-166667 166667S0 258715 0 166667 74619 0 166667 0zm80219 91205l-29735 149919s-4158 10396-15594 5404l-68410-53854s76104-68409 79222-71320c3119-2911 2079-3534 2079-3534 207-3535-5614 0-5614 0l-100846 64043-42002-14140s-6446-2288-7069-7277c-624-4992 7277-7694 7277-7694l166970-65498s13722-6030 13722 3951zm-87637 122889l-27141 24745s-2122 1609-4443 601l5197-45965 26387 20619z"/>
    </symbol>
    <symbol id="skype" viewBox="0 0 16 16">
      <path d="m15.4336844 9.31316813c-.0050677.02812574-.0086151.05650487-.0139362.08463056l-.0273656-.16115288c.0149497.02508513.0273656.05118382.0413018.07652232.0826035-.44950513.1259323-.90965244.1259323-1.36954632 0-1.01987487-.1996674-2.00934356-.594188-2.94078707-.3805843-.89977037-.9251088-1.70781534-1.6193839-2.40158365-.6932615-.69376831-1.5018133-1.23829282-2.4010769-1.61887719-.9311901-.39401378-1.92065877-.59368121-2.94053365-.59368121-.4806715 0-.96210313.04510254-1.43061212.13505424-.0010135.00025339-.00228044.00025339-.00354738.00050677.02635206.01393618.0529575.02635205.07880275.040795l-.15887244-.02483174c.02660544-.0050677.05346425-.01064217.08006969-.01596326-.6428379-.34181645-1.36574549-.5242537-2.09752156-.5242537-1.19471059 0-2.31796659.46521498-3.1627524 1.31025418-.84453242.84478581-1.31000079 1.96804181-1.31000079 3.1627524 0 .76040858.19561327 1.50789452.56276823 2.16846936.00481432-.02736556.00810832-.0549845.01342941-.08235013l.02736559.15836569c-.01418957-.02483175-.02660543-.050677-.040795-.07601556-.07449521.42796743-.11376989.86531006-.11376989 1.30214587 0 1.02012832.19966743 2.00934356.59418798 2.94104049.3800776.9000238.92485549 1.7075619 1.61837042 2.4013303.69427508.6937683 1.50181328 1.2390529 2.40209042 1.6186238.93119012.3947739 1.92091221.5946947 2.94078709.5946947.44393062 0 .88887481-.0405416 1.32317681-.1175707-.0253385-.0141895-.05118381-.0271122-.07702906-.0420619l.16140625.0283791c-.02787231.0053212-.05599806.0086151-.08437719.0136828.66918994.3785573 1.42681134.5797451 2.20039584.5797451 1.1944573 0 2.3172065-.4644549 3.1619923-1.3097474.8450392-.8442791 1.3100008-1.9677885 1.3100008-3.162499 0-.7629425-.1966268-1.51296229-.5663156-2.17607097zm-7.39909734 3.25751837c-2.684108 0-3.88489983-1.3196294-3.88489983-2.3085913 0-.50727695.37450313-.8627762.89064851-.8627762 1.1485945 0 .85112044 1.6492834 2.99425132 1.6492834 1.09715732 0 1.703001-.5957083 1.703001-1.20535271 0-.36664819-.18091693-.77307788-.90331775-.95120757l-2.38739406-.59596168c-1.92268589-.48219175-2.27159713-1.52157731-2.27159713-2.49863013 0-2.02860083 1.91001663-2.79027635 3.70372951-2.79027635 1.652324 0 3.60009497.91319978 3.60009497 2.13020825 0 .52146647-.4515322.8247684-.9674242.8247684-.98034677 0-.79993659-1.35687703-2.7745664-1.35687703-.97984006 0-1.52259087.44367725-1.52259087 1.07866023 0 .63371607.773838.83617069 1.44581518.98921532l1.76710744.39224006c1.93560855.43126137 2.42641545 1.56135875 2.42641545 2.62582944 0 1.64852327-1.2654051 2.87946787-3.81927314 2.87946787zm1.21599494 2.7751234c.02584525.0239196.05169056.0445958.07702906.0672991.02837913-.0081083.05650488-.0133787.08437719-.0218925zm6.191945-5.94801121c.0085138-.02812569.0141896-.05650482.0222979-.08463056-.0222979-.0253385-.0421633-.05143719-.0660828-.07652232zm-14.85176021-2.83867288c-.00851374.02736563-.01378415.05498457-.02148706.08235013.02270331.02533856.04256869.05118381.065272.07601556zm6.05831071-5.96308861c-.02584525-.02310872-.05245069-.04297411-.07880275-.065272-.02660544.00851374-.05346425.0174329-.08006969.02554122z"/>
    </symbol> 
    <symbol id="discord" viewBox="0 0 509 511.91">
      <path d="M256 0c141.385 0 256 114.615 256 256S397.385 512 256 512 0 397.385 0 256 114.615 0 256 0zm104.932 160.621a250.428 250.428 0 00-62.383-19.182 173.883 173.883 0 00-7.966 16.243 232.557 232.557 0 00-34.619-2.603c-11.569 0-23.195.879-34.622 2.58-2.334-5.509-5.044-10.971-7.986-16.223a252.58 252.58 0 00-62.397 19.222c-39.483 58.408-50.183 115.357-44.833 171.497a251.49 251.49 0 0076.502 38.398c6.169-8.327 11.695-17.192 16.386-26.417a161.682 161.682 0 01-25.813-12.319c2.164-1.569 4.281-3.186 6.325-4.756 23.912 11.231 50.039 17.088 76.473 17.088 26.436 0 52.562-5.857 76.475-17.089 2.069 1.688 4.186 3.305 6.325 4.755a162.693 162.693 0 01-25.86 12.352 183.969 183.969 0 0016.387 26.397 250.498 250.498 0 0076.553-38.392l-.006.007c6.277-65.104-10.725-121.53-44.941-171.558zM205.78 297.63c-14.908 0-27.226-13.53-27.226-30.175 0-16.645 11.889-30.293 27.178-30.293 15.29 0 27.511 13.648 27.25 30.293-.262 16.645-12.008 30.175-27.202 30.175zm100.439 0c-14.933 0-27.202-13.53-27.202-30.175 0-16.645 11.889-30.293 27.202-30.293 15.313 0 27.44 13.648 27.178 30.293-.261 16.645-11.984 30.175-27.178 30.175z"/>
    </symbol>   
    <symbol id="github" viewBox="0 0 640 640">
      <path d="M319.988 7.973C143.293 7.973 0 151.242 0 327.96c0 141.392 91.678 261.298 218.826 303.63 16.004 2.964 21.886-6.957 21.886-15.414 0-7.63-.319-32.835-.449-59.552-89.032 19.359-107.8-37.772-107.8-37.772-14.552-36.993-35.529-46.831-35.529-46.831-29.032-19.879 2.209-19.442 2.209-19.442 32.126 2.245 49.04 32.954 49.04 32.954 28.56 48.922 74.883 34.76 93.131 26.598 2.882-20.681 11.15-34.807 20.315-42.803-71.08-8.067-145.797-35.516-145.797-158.14 0-34.926 12.52-63.485 32.965-85.88-3.33-8.078-14.291-40.606 3.083-84.674 0 0 26.87-8.61 88.029 32.8 25.512-7.075 52.878-10.642 80.056-10.76 27.2.118 54.614 3.673 80.162 10.76 61.076-41.386 87.922-32.8 87.922-32.8 17.398 44.08 6.485 76.631 3.154 84.675 20.516 22.394 32.93 50.953 32.93 85.879 0 122.907-74.883 149.93-146.117 157.856 11.481 9.921 21.733 29.398 21.733 59.233 0 42.792-.366 77.28-.366 87.804 0 8.516 5.764 18.473 21.992 15.354 127.076-42.354 218.637-162.274 218.637-303.582 0-176.695-143.269-319.988-320-319.988l-.023.107z"/>
    </symbol>   
  </defs>
</svg>
