<svg version="1.0" xmlns="http://www.w3.org/2000/svg"
 width="24.000000pt" height="24.000000pt" viewBox="0 0 24.000000 24.000000"
 preserveAspectRatio="xMidYMid meet">

    <g transform="translate(0.000000,24.000000) scale(0.100000,-0.100000)"
    fill="#000000" stroke="none">
        <path d="M81 227 c-69 -24 -98 -116 -54 -175 39 -53 134 -60 177 -13 80 89
        -10 227 -123 188z m87 -114 c-12 -58 -14 -59 -32 -44 -8 7 -20 10 -26 6 -19
        -12 -10 18 13 44 l22 24 -25 -16 c-24 -16 -81 -25 -66 -10 10 11 88 41 107 42
        14 1 15 -5 7 -46z"/>
    </g>
</svg>